<!DOCTYPE svg PUBLIC "-//W3C//DTD SVG 1.1//EN" "http://www.w3.org/Graphics/SVG/1.1/DTD/svg11.dtd">

<!-- Uploaded to: SVG Repo, www.svgrepo.com, Transformed by: SVG Repo Mixer Tools -->
<svg fill="#000000" height="64px" width="64px" version="1.1" id="Capa_1" xmlns="http://www.w3.org/2000/svg" xmlns:xlink="http://www.w3.org/1999/xlink" viewBox="-68.31 -68.31 433.62 433.62" xml:space="preserve" stroke="#000000" stroke-width="0.00297">

<g id="SVGRepo_bgCarrier" stroke-width="0"/>

<g id="SVGRepo_tracerCarrier" stroke-linecap="round" stroke-linejoin="round"/>

<g id="SVGRepo_iconCarrier"> <g> <path fill="#fff" d="M116.463,47.255V25.756c0-4.374-3.546-7.92-7.92-7.92H82.858V9.899C82.858,4.433,78.425,0,72.959,0 c-5.467,0-9.899,4.433-9.899,9.899v7.937H37.374c-4.374,0-7.92,3.546-7.92,7.92v21.499c-9.698,7.316-15.98,18.931-15.98,31.988 v69.018c0,5.467,4.433,9.899,9.899,9.899c5.478,0,9.934,4.457,9.934,9.935c0,5.478-4.457,9.934-9.934,9.934 c-5.467,0-9.899,4.433-9.899,9.899v69.019c0,22.084,17.967,40.051,40.051,40.051h38.867c22.084,0,40.051-17.967,40.051-40.051 v-69.019c0-5.467-4.433-9.899-9.899-9.899c-5.478,0-9.934-4.457-9.934-9.934c0-5.479,4.457-9.935,9.934-9.935 c5.467,0,9.899-4.432,9.899-9.899V79.243C132.443,66.186,126.161,54.571,116.463,47.255z M45.293,33.675h55.33v6.37 c-2.658-0.558-5.411-0.855-8.232-0.855H53.525c-2.821,0-5.574,0.297-8.232,0.855V33.675z M112.644,140.056 c-11.543,4.087-19.834,15.113-19.834,28.039c0,12.925,8.291,23.951,19.834,28.039v60.814c0,11.167-9.085,20.252-20.252,20.252 H53.525c-11.167,0-20.252-9.085-20.252-20.252v-60.814c11.543-4.088,19.834-15.114,19.834-28.039 c0-12.926-8.291-23.952-19.834-28.039V79.243c0-11.168,9.085-20.253,20.252-20.253h38.867c11.167,0,20.252,9.085,20.252,20.253 V140.056z"/> <path fill="#fff" d="M81.126,207.897H64.792c-3.827,0-6.93,3.102-6.93,6.93c0,3.827,3.102,6.93,6.93,6.93h16.334c3.827,0,6.93-3.102,6.93-6.93 C88.055,210.999,84.953,207.897,81.126,207.897z"/> <path fill="#fff" d="M81.126,240.565H64.792c-3.827,0-6.93,3.102-6.93,6.93c0,3.827,3.102,6.93,6.93,6.93h16.334c3.827,0,6.93-3.102,6.93-6.93 C88.055,243.667,84.953,240.565,81.126,240.565z"/> <path fill="#fff" d="M260.582,166.441c-15.179-6.35-27.662-4.113-37.107,1.346c1.598-4.476,4.734-9.715,10.648-15.201 c4.008-3.718,4.243-9.982,0.525-13.99c-3.716-4.007-9.981-4.244-13.99-0.525c-11.111,10.307-15.859,20.648-17.585,29.314 c-9.358-5.16-21.593-7.132-36.389-0.944c-14.378,6.012-22.74,22.395-22.941,44.948c-0.251,28.311,12.686,64.198,37.156,74.946 c6.318,2.776,12.495,3.704,17.937,3.704c6.174,0,11.398-1.196,14.798-2.247c6.396,1.977,19.248,4.466,32.735-1.456 c24.47-10.748,37.406-46.637,37.155-74.947C283.321,188.835,274.96,172.453,260.582,166.441z M238.406,268.207 c-10.201,4.481-20.307,0.213-20.659,0.06c-2.633-1.204-5.587-1.231-8.218-0.004c-0.102,0.045-10.335,4.484-20.668-0.056 c-13.943-6.123-25.538-32.063-25.319-56.642c0.125-14.047,4.154-24.087,10.779-26.858c8.534-3.566,15.769-2.893,22.127,2.058 c5.402,4.209,8.213,9.943,8.213,9.943c1.626,3.486,5.125,5.715,8.972,5.715s7.346-2.229,8.972-5.715 c0.024-0.053,2.682-5.447,7.788-9.605c6.459-5.257,13.836-6.041,22.551-2.397c6.625,2.771,10.654,12.811,10.78,26.858 C263.943,236.144,252.348,262.083,238.406,268.207z"/> </g> </g>

</svg>